<svg xmlns="http://www.w3.org/2000/svg" viewBox="0 0 128 96" role="img" aria-label="crying emoji">
  <rect width="128" height="96" fill="none"/>
  <ellipse cx="64" cy="91" rx="42" ry="5" fill="#4ca6d7"/>
  <circle cx="64" cy="43" r="40" fill="#f8c84e"/>
  <path d="M26 48c5 5 9 12 9 22 0 11-5 18-12 21-6-9-9-18-8-29 1-7 5-12 11-14Z" fill="#6bbde9"/>
  <path d="M102 48c-5 5-9 12-9 22 0 11 5 18 12 21 6-9 9-18 8-29-1-7-5-12-11-14Z" fill="#6bbde9"/>
  <path d="M38 28c7-8 17-10 27-5" fill="none" stroke="#553d20" stroke-width="6" stroke-linecap="round"/>
  <path d="M90 28c-7-8-17-10-27-5" fill="none" stroke="#553d20" stroke-width="6" stroke-linecap="round"/>
  <path d="M47 42c4-4 10-4 14 0" fill="none" stroke="#553d20" stroke-width="5" stroke-linecap="round"/>
  <path d="M67 42c4-4 10-4 14 0" fill="none" stroke="#553d20" stroke-width="5" stroke-linecap="round"/>
  <path d="M52 54c4-7 20-7 24 0 3 7-1 20-12 20S49 61 52 54Z" fill="#7b362c"/>
  <rect x="59" y="61" width="10" height="10" rx="2" fill="#ff7eb8"/>
</svg>
