<svg xmlns="http://www.w3.org/2000/svg" viewBox="0 0 1200 900" role="img" aria-labelledby="title desc">
  <title id="title">songlasses wide meme credited to nuggettr</title>
  <desc id="desc">Alternate stylized songlasses son meme with creator credit.</desc>
  <rect width="1200" height="900" fill="#30332c"/>
  <ellipse cx="720" cy="430" rx="328" ry="382" fill="#694733"/>
  <ellipse cx="747" cy="395" rx="246" ry="296" fill="#a47152"/>
  <path d="M450 308c70-46 260-34 395 9l-32 104c-117-45-248-43-394 8Z" fill="#111"/>
  <rect x="350" y="340" width="286" height="96" rx="28" fill="#080808" transform="rotate(1 493 388)"/>
  <rect x="659" y="348" width="294" height="98" rx="28" fill="#080808" transform="rotate(3 806 397)"/>
  <rect x="618" y="382" width="64" height="28" fill="#080808"/>
  <path d="M284 582c172-80 356-63 620 19 91 29 183 26 296 5v294H0V722c90-59 188-102 284-140Z" fill="#25313c"/>
  <text x="92" y="708" font-family="Arial Black, Impact, sans-serif" font-size="96" fill="#fff" stroke="#000" stroke-width="12" paint-order="stroke fill">songlasses</text>
  <text x="662" y="728" font-family="Arial, sans-serif" font-size="90" fill="#ffd64f">😭😭😭😭</text>
  <text x="716" y="842" font-family="Arial, sans-serif" font-size="48" fill="#fff">credit: nuggettr</text>
</svg>
