<svg xmlns="http://www.w3.org/2000/svg" viewBox="0 0 1000 1000" role="img" aria-labelledby="title desc">
  <title id="title">Sony meme credited to nuggettr</title>
  <desc id="desc">Stylized Sony son meme image with PS5 shell and nuggettr credit.</desc>
  <rect width="1000" height="1000" fill="#34372f"/>
  <ellipse cx="517" cy="472" rx="260" ry="320" fill="#9b6b50"/>
  <ellipse cx="517" cy="488" rx="190" ry="250" fill="#b47a5d"/>
  <path d="M247 70c144-47 239-23 300 71 61 94 65 239 12 436-41 153-57 281-47 379-168-53-267-161-294-325-35-211-25-402 29-561Z" fill="#e5e6e4"/>
  <path d="M649 96c103 18 146 92 133 221-12 125-25 315-5 571 97-49 149-144 155-284 8-179 4-344-13-495C830 74 741 69 649 96Z" fill="#d9dad9"/>
  <path d="M716 100c64 12 103 60 105 147 2 83-18 385 3 626 34-77 50-175 47-294-4-176-1-337-11-444-38-39-87-52-144-35Z" fill="#0d1118"/>
  <rect x="612" y="120" width="22" height="520" rx="11" fill="#1e5bff" opacity=".78"/>
  <text x="387" y="520" font-family="Arial, sans-serif" font-size="64" fill="#fff">Sony😭😭</text>
  <text x="508" y="943" text-anchor="middle" font-family="Arial, sans-serif" font-size="42" fill="#fff">credit: nuggettr</text>
</svg>
